<svg xmlns="http://www.w3.org/2000/svg" xmlns:xlink="http://www.w3.org/1999/xlink" width="1920" zoomAndPan="magnify" viewBox="0 0 1440 809.999993" height="1080" preserveAspectRatio="xMidYMid meet" version="1.0"><defs><clipPath id="621991f701"><path d="M 652.125 337.3125 L 787.5 337.3125 L 787.5 472.6875 L 652.125 472.6875 Z M 652.125 337.3125 " clip-rule="nonzero"/></clipPath><clipPath id="2460bff2bf"><path d="M 719.8125 337.3125 C 682.429688 337.3125 652.125 367.617188 652.125 405 C 652.125 442.382812 682.429688 472.6875 719.8125 472.6875 C 757.195312 472.6875 787.5 442.382812 787.5 405 C 787.5 367.617188 757.195312 337.3125 719.8125 337.3125 Z M 719.8125 337.3125 " clip-rule="nonzero"/></clipPath><clipPath id="e13de5fa95"><path d="M 658.3125 343.875 L 781.3125 343.875 L 781.3125 466.875 L 658.3125 466.875 Z M 658.3125 343.875 " clip-rule="nonzero"/></clipPath><clipPath id="fe0dc984ad"><path d="M 719.8125 343.875 C 685.847656 343.875 658.3125 371.410156 658.3125 405.375 C 658.3125 439.339844 685.847656 466.875 719.8125 466.875 C 753.777344 466.875 781.3125 439.339844 781.3125 405.375 C 781.3125 371.410156 753.777344 343.875 719.8125 343.875 Z M 719.8125 343.875 " clip-rule="nonzero"/></clipPath></defs><g clip-path="url(#621991f701)"><g clip-path="url(#2460bff2bf)"><path fill="#545454" d="M 652.125 337.3125 L 787.5 337.3125 L 787.5 472.6875 L 652.125 472.6875 Z M 652.125 337.3125 " fill-opacity="1" fill-rule="nonzero"/></g></g><g clip-path="url(#e13de5fa95)"><g clip-path="url(#fe0dc984ad)"><path fill="#ffffff" d="M 658.3125 343.875 L 781.3125 343.875 L 781.3125 466.875 L 658.3125 466.875 Z M 658.3125 343.875 " fill-opacity="1" fill-rule="nonzero"/></g></g><path fill="#25995c" d="M 744.480469 378.460938 C 702.757812 378.273438 680.359375 397.613281 678.441406 437.652344 C 678.417969 438.152344 677.675781 438.183594 677.605469 437.683594 C 675.742188 424.601562 676.101562 412.679688 679.449219 402.316406 C 690.484375 368.113281 732.585938 363.628906 762.457031 374.453125 C 763.945312 374.992188 764.246094 376.898438 763.007812 377.882812 C 739.707031 396.378906 742.878906 446.867188 686.167969 424.984375 C 695.023438 397.65625 713.183594 380.71875 744.480469 378.460938 " fill-opacity="1" fill-rule="evenodd"/></svg>